<svg xmlns="http://www.w3.org/2000/svg" width="75" height="75" viewBox="0 0 75 75">
    <defs>
        <linearGradient id="a" x1="-26.146%" x2="132.876%" y1="1.422%" y2="81.047%">
            <stop offset="0%" stop-color="#55BCA4"/>
            <stop offset="100%" stop-color="#270F71"/>
        </linearGradient>
    </defs>
    <g fill="url(#a)" fill-rule="nonzero" transform="translate(-153 -1991)">
        <path d="M190.5 1991a7.5 7.5 0 1 0 0 15 7.507 7.507 0 0 0 7.5-7.5 7.5 7.5 0 0 0-7.5-7.5zm0 12.5a5 5 0 1 1 0-10 5 5 0 0 1 0 10zM195.5 2007.25h-.295l-.264.131a9.964 9.964 0 0 1-8.882 0l-.264-.131h-.295a6.257 6.257 0 0 0-6.25 6.25v7.5a3.75 3.75 0 0 0 3.75 3.75h15a3.75 3.75 0 0 0 3.75-3.75v-7.5a6.257 6.257 0 0 0-6.25-6.25zm3.75 13.75c0 .69-.56 1.25-1.25 1.25h-15c-.69 0-1.25-.56-1.25-1.25v-7.5a3.75 3.75 0 0 1 3.484-3.74 12.51 12.51 0 0 0 10.532 0 3.75 3.75 0 0 1 3.484 3.74v7.5zM216.75 2032.25a7.5 7.5 0 1 0 7.5 7.5 7.507 7.507 0 0 0-7.5-7.5zm0 12.5a5 5 0 1 1 0-10 5 5 0 0 1 0 10zM221.75 2048.5h-.295l-.264.125a9.965 9.965 0 0 1-8.882 0l-.264-.125h-.295a6.257 6.257 0 0 0-6.25 6.25v7.5a3.75 3.75 0 0 0 3.75 3.75h15a3.75 3.75 0 0 0 3.75-3.75v-7.5a6.257 6.257 0 0 0-6.25-6.25zm3.75 13.75c0 .69-.56 1.25-1.25 1.25h-15c-.69 0-1.25-.56-1.25-1.25v-7.5a3.75 3.75 0 0 1 3.484-3.74 12.51 12.51 0 0 0 10.532 0 3.75 3.75 0 0 1 3.484 3.74v7.5zM164.25 2032.25a7.5 7.5 0 1 0 7.5 7.5 7.507 7.507 0 0 0-7.5-7.5zm0 12.5a5 5 0 1 1 0-10 5 5 0 0 1 0 10zM169.25 2048.5h-.295l-.264.125a9.965 9.965 0 0 1-8.882 0l-.264-.125h-.295a6.257 6.257 0 0 0-6.25 6.25v7.5a3.75 3.75 0 0 0 3.75 3.75h15a3.75 3.75 0 0 0 3.75-3.75v-7.5a6.257 6.257 0 0 0-6.25-6.25zm3.75 13.75c0 .69-.56 1.25-1.25 1.25h-15c-.69 0-1.25-.56-1.25-1.25v-7.5a3.75 3.75 0 0 1 3.484-3.74 12.51 12.51 0 0 0 10.532 0 3.75 3.75 0 0 1 3.484 3.74v7.5zM202.902 2054.48l-.002-.004a1.25 1.25 0 0 0-1.64-.66 27.727 27.727 0 0 1-17.829 1.228l1.17-.344a1.25 1.25 0 1 0-.702-2.4l-5 1.466c-.019 0-.033.022-.05.028a1.239 1.239 0 0 0-.323.179c-.043.023-.085.05-.125.078a1.21 1.21 0 0 0-.306.425c-.068.164-.1.34-.095.517.03.169.072.336.125.5.008.017 0 .037.014.055l2.5 4.783a1.25 1.25 0 1 0 2.217-1.157l-1.017-1.945a30.088 30.088 0 0 0 20.399-1.11 1.25 1.25 0 0 0 .664-1.638zM223.884 2023.866a1.25 1.25 0 0 0-1.768 0l-1.769 1.769a29.955 29.955 0 0 0-18.107-24.75 1.25 1.25 0 1 0-.98 2.3 27.459 27.459 0 0 1 16.534 22.091l-1.41-1.41a1.25 1.25 0 0 0-1.768 1.768l3.75 3.75a1.25 1.25 0 0 0 1.768.002l.002-.002 3.75-3.75a1.25 1.25 0 0 0-.002-1.768zM180.464 2001.824a1.162 1.162 0 0 0-.033-.217c0-.01-.014-.018-.019-.03-.004-.013 0-.022 0-.032a1.199 1.199 0 0 0-.117-.172 1.262 1.262 0 0 0-.142-.207 1.173 1.173 0 0 0-.244-.166 1.1 1.1 0 0 0-.14-.101l-5-2.284a1.25 1.25 0 0 0-1.038 2.273l2.589 1.183a29.954 29.954 0 0 0-15.82 26.429 1.25 1.25 0 0 0 2.5 0 27.457 27.457 0 0 1 13.529-23.68l-.904 1.889a1.25 1.25 0 0 0 1.125 1.791c.48 0 .917-.276 1.125-.709l2.5-5.216c0-.012 0-.026.01-.039.032-.085.055-.174.067-.265.022-.067.038-.136.048-.206a1.246 1.246 0 0 0-.036-.241z"/>
    </g>
</svg>
