<svg xmlns="http://www.w3.org/2000/svg" width="63" height="75" viewBox="0 0 63 75">
    <defs>
        <linearGradient id="a" x1="-26.146%" x2="132.876%" y1="1.422%" y2="81.047%">
            <stop offset="0%" stop-color="#55BCA4"/>
            <stop offset="100%" stop-color="#270F71"/>
        </linearGradient>
    </defs>
    <g fill="url(#a)" fill-rule="nonzero" transform="translate(-159 -1890)">
        <path d="M220.035 1903.281c-4.877 0-8.578-2.854-12.497-5.875-4.502-3.472-9.605-7.406-17.19-7.406-7.586 0-12.689 3.934-17.191 7.406-3.919 3.02-7.62 5.875-12.497 5.875-.863 0-1.562.7-1.562 1.563 0 18.243 2.272 30.391 7.367 39.388 5.06 8.934 12.59 14.49 23.101 20.559a1.56 1.56 0 0 0 1.563 0c10.51-6.069 18.042-11.625 23.101-20.559 5.095-8.997 7.367-21.145 7.367-39.388 0-.863-.7-1.563-1.562-1.563zm-29.687 58.35c-18.848-10.99-27.874-20.458-28.12-55.303 5.148-.52 9.051-3.529 12.837-6.448 4.308-3.32 8.762-6.755 15.283-6.755 6.52 0 10.974 3.434 15.282 6.755 3.786 2.92 7.69 5.929 12.837 6.448-.246 34.845-9.272 44.313-28.12 55.303z"/>
        <path d="M171.886 1907.845a1.563 1.563 0 0 0-2.11-.654c-.195.102-.391.202-.589.3a1.563 1.563 0 0 0 1.38 2.803c.224-.11.445-.223.664-.338a1.563 1.563 0 0 0 .655-2.111zM213.138 1920.098a1.562 1.562 0 0 0 1.697-1.415c.019-.2.036-.4.053-.6a1.563 1.563 0 1 0-3.114-.263 87.82 87.82 0 0 1-.05.58c-.079.86.555 1.62 1.414 1.698zM174.975 1907.304c.316 0 .636-.096.913-.296.905-.654 1.787-1.325 2.639-1.974 3.988-3.037 7.433-5.66 11.82-5.66a1.563 1.563 0 0 0 0-3.124c-5.442 0-9.46 3.059-13.713 6.298-.837.637-1.703 1.296-2.576 1.926a1.562 1.562 0 0 0 .917 2.83zM190.348 1954.349c-4-2.466-8.829-5.776-12.45-10.046a1.563 1.563 0 0 0-2.384 2.022c4.16 4.905 9.68 8.558 14.023 11.192l.025.012c.037.022.075.04.115.06.025.011.05.025.075.035.035.014.07.026.107.037.03.01.06.022.09.03.033.009.066.014.1.02.032.007.066.015.1.02.047.005.094.007.142.009l.055.003h.003c.019 0 .037-.003.055-.003.048-.002.096-.003.143-.01.034-.004.066-.012.1-.019.033-.006.066-.011.1-.02.03-.008.06-.02.089-.03.036-.011.072-.022.108-.037.025-.01.05-.023.075-.035.039-.019.077-.038.115-.06l.024-.012c4.343-2.634 9.862-6.286 14.023-11.192 4.744-5.596 7.735-13.169 9.142-23.151a1.562 1.562 0 1 0-3.095-.436c-1.322 9.38-4.08 16.434-8.43 21.566-3.622 4.269-8.45 7.58-12.45 10.045z"/>
        <path d="M200.432 1909.548l-16.3 16.3-3.868-3.869a5.044 5.044 0 0 0-3.591-1.483c-1.36 0-2.635.527-3.592 1.484a5.086 5.086 0 0 0 0 7.182l7.47 7.47.066.063.028.028.066.06c.011.012.023.022.035.033l.067.058c.01.01.021.018.032.027l.068.057.023.019.07.055.038.03.071.054.03.021.072.051a1.4 1.4 0 0 0 .032.022l.072.05.035.023.074.047.03.018.074.045.03.018.075.043.044.025.077.04.024.013.076.04.041.02.078.037.033.015.04.018c.028.013.056.026.085.037l.08.033.021.008.08.031.036.015.08.029c.014.005.027.01.04.013l.04.014c.026.01.053.018.08.026l.081.025.035.01.082.023.035.01.082.02.034.009.082.019.036.008.082.017.048.009.04.007c.025.005.05.01.075.013l.084.013.037.005.084.01a.998.998 0 0 0 .036.005l.04.004.079.01.084.006.048.003.04.002c.025.003.052.004.078.005l.084.002.026.001.084.001h.045l.085-.001h.025l.085-.003.078-.005.04-.002.048-.003.084-.007.078-.008.04-.005c.012 0 .023-.002.035-.004l.084-.01.04-.006.083-.013c.025-.004.05-.008.076-.014l.04-.007a.702.702 0 0 0 .046-.009l.083-.016.032-.007.083-.02.04-.009.082-.021a.75.75 0 0 0 .032-.009l.082-.023a1.14 1.14 0 0 0 .034-.01l.081-.024.076-.026.04-.013a2.12 2.12 0 0 0 .044-.015l.08-.03.037-.013.08-.031a.835.835 0 0 0 .026-.011l.079-.032c.025-.01.05-.022.075-.034l.04-.018.04-.018.077-.037.031-.015.077-.039c.025-.012.05-.026.073-.04l.04-.02a1.05 1.05 0 0 0 .034-.02l.075-.042.036-.022.075-.045.035-.022.073-.047a.468.468 0 0 0 .024-.016l.073-.049.038-.026.071-.05.036-.027.07-.054a3.01 3.01 0 0 1 .026-.02l.07-.054.054-.045.039-.033a1.17 1.17 0 0 0 .04-.034l.068-.06.025-.023.066-.06.03-.028.064-.063a1.4 1.4 0 0 0 .041-.042l19.867-19.866a5.084 5.084 0 0 0-.001-7.182 5.043 5.043 0 0 0-3.591-1.483c-1.36 0-2.635.527-3.592 1.484zm4.973 4.972l-19.892 19.891-.01.01-.145.13-.005.004-.186.132-.264.137h-.002l-.175.065-.006.001-.27.064-.01.001-.134.017h-.01l-.077.005-.01.001-.077.002-.05-.001h-.027l-.01-.001-.078-.005-.009-.001-.134-.016-.012-.003-.269-.062h-.001l-.154-.056-.293-.15-.27-.203-7.534-7.53a1.957 1.957 0 0 1 0-2.763 1.94 1.94 0 0 1 1.382-.568 1.94 1.94 0 0 1 1.382.568l4.972 4.973a1.561 1.561 0 0 0 2.21 0l17.405-17.405a1.939 1.939 0 0 1 1.381-.568 1.94 1.94 0 0 1 1.382.568 1.956 1.956 0 0 1 0 2.763z"/>
    </g>
</svg>
