<svg xmlns="http://www.w3.org/2000/svg" width="129" height="129" viewBox="0 0 129 129">
    <g fill="none" fill-rule="evenodd" transform="translate(2 2)">
        <g fill="#FFF" fill-rule="nonzero">
            <path d="M43.763 25h3.044c2.454 0 4.761.956 6.496 2.691a1.11 1.11 0 1 1-1.569 1.57 6.923 6.923 0 0 0-4.927-2.042h-3.044a1.11 1.11 0 1 1 0-2.219z"/>
            <path d="M31.942 25h8.271a1.11 1.11 0 1 1 0 2.219h-7.074c.533 3.317 3.416 5.86 6.882 5.86h8.438c.613 0 1.11.496 1.11 1.109v.75c0 1.086.846 2.014 1.926 2.111a1.11 1.11 0 1 1-.2 2.21 4.313 4.313 0 0 1-3.93-3.962H40.02c-5.066 0-9.188-4.121-9.188-9.188 0-.612.497-1.109 1.11-1.109z"/>
            <path d="M44.225 37.025c.612 0 1.109.497 1.109 1.11v1.538a1.11 1.11 0 1 1-2.219 0v-1.538c0-.613.497-1.11 1.11-1.11zM40.226 37.025c.613 0 1.11.497 1.11 1.11v1.538a1.11 1.11 0 1 1-2.22 0v-1.538c0-.613.497-1.11 1.11-1.11zM43.743 45.512c1.36-.073 2.336-.612 2.902-1.603a1.11 1.11 0 1 1 1.926 1.101c-.95 1.664-2.58 2.604-4.71 2.718l-.06.001a1.11 1.11 0 0 1-.058-2.217z"/>
            <path d="M36.289 35.507c.612 0 1.109.497 1.109 1.11v5.229c0 4.515 3.674 8.188 8.19 8.188 2.5 0 4.832-1.121 6.397-3.076a1.11 1.11 0 1 1 1.732 1.386 10.362 10.362 0 0 1-8.13 3.91c-5.739 0-10.408-4.67-10.408-10.408v-5.23c0-.612.497-1.109 1.11-1.109zM50.48 51.981a1.109 1.109 0 0 1 1.477.532c1.966 4.18 3.394 9.957 4.246 14.066a1.11 1.11 0 1 1-2.172.45c-.828-3.992-2.208-9.587-4.082-13.572a1.11 1.11 0 0 1 .532-1.476zM28.47 57.474c.048-.012.43-.101.993-.052v-1.19a1.11 1.11 0 1 1 2.218 0v2.084c.88.679 1.774 1.843 2.447 3.82.414 1.218 1.155 1.862 2.263 1.97 1.58.154 3.461-.841 4.15-1.846.549-2.9.956-5.83 1.21-8.315a1.108 1.108 0 1 1 2.207.225c-.216 2.116-1.383 12.482-4.093 18.787 2.232.874 7.827 2.607 12.559.298a1.11 1.11 0 1 1 .973 1.994c-.242.118-.486.226-.73.327-.833 1.986-4.431 11.876 1.334 22.49a1.11 1.11 0 0 1-.975 1.638H49.18a1.11 1.11 0 1 1 0-2.219h2.045c-2.83-6.088-2.913-11.79-2.437-15.632a29.132 29.132 0 0 1 1.22-5.49 15.9 15.9 0 0 1-2.973.273c-1.725 0-3.352-.254-4.744-.587-1.063 2.775-3.875 12.079 1.523 22.016a1.11 1.11 0 0 1-.975 1.639h-3.845a1.11 1.11 0 1 1 0-2.219h2.045c-2.83-6.088-2.913-11.79-2.437-15.632.36-2.895 1.066-5.14 1.547-6.421-1.32-.448-2.161-.861-2.266-.914a1.11 1.11 0 0 1-.497-1.489c.956-1.911 1.778-4.572 2.455-7.46-.956.47-2.044.77-3.123.77-.182 0-.363-.008-.544-.025-1.98-.194-3.453-1.423-4.148-3.463-.323-.95-.689-1.622-1.051-2.098l-1.936.183a1.11 1.11 0 0 1-1.2-.936l-.198-1.282a1.11 1.11 0 0 1 .828-1.244zM62.092 37.025c.612 0 1.109.497 1.109 1.11v1.538a1.11 1.11 0 1 1-2.219 0v-1.538c0-.613.497-1.11 1.11-1.11zM58.093 37.025c.613 0 1.11.497 1.11 1.11v1.538a1.11 1.11 0 1 1-2.22 0v-1.538c0-.613.497-1.11 1.11-1.11zM61.61 45.512c1.378-.074 2.328-.598 2.902-1.603a1.109 1.109 0 1 1 1.926 1.101c-.95 1.664-2.58 2.604-4.71 2.718l-.06.002a1.11 1.11 0 0 1-.058-2.218z"/>
            <path d="M53.132 78.897c.05-.146 5.04-14.697 6.565-25.505a1.109 1.109 0 1 1 2.197.31c-.814 5.77-2.583 12.51-3.924 17.15a217.476 217.476 0 0 1-2.343 7.582c5.916 1.189 10.92.974 14.153.562a1.11 1.11 0 1 1 .28 2.2c-.317.042-.651.08-1 .116-.654 4.243-.579 10.357 2.896 16.753a1.11 1.11 0 0 1-.975 1.64h-3.846a1.11 1.11 0 1 1 0-2.22h2.045c-2.832-6.08-2.958-11.808-2.386-16a45.695 45.695 0 0 1-4.987-.024c-.628 4.237-.515 10.283 2.919 16.604a1.11 1.11 0 0 1-.975 1.64h-3.844a1.11 1.11 0 1 1 0-2.22h2.043c-2.877-6.176-2.963-11.994-2.36-16.204a47.715 47.715 0 0 1-5.657-.942 1.11 1.11 0 0 1-.801-1.442zM55.213 27.997c2.007-2.012 5.299-2.99 10.062-2.99 2.169 0 4.08.258 5.68.765a1.11 1.11 0 0 1-.67 2.115c-1.383-.439-3.07-.661-5.01-.661-7.563 0-9.411 2.708-9.863 4.906 3.202-1.447 6.081-1.897 8.576-1.328 2.866.654 4.537 2.467 5.434 3.873.755 1.184 1.244 2.554 1.244 3.49a1.11 1.11 0 1 1-2.219 0c0-.291-.219-1.236-.895-2.296-1.367-2.142-4.763-5.085-12.287-1.208v7.183c0 4.515 3.674 8.188 8.19 8.188a8.14 8.14 0 0 0 1.94-.232 8.144 8.144 0 0 0 5-3.607 1.11 1.11 0 0 1 1.878 1.18 10.35 10.35 0 0 1-6.351 4.583c-.799.195-1.629.295-2.467.295-5.74 0-10.409-4.669-10.409-10.408v-7.85c0-2.574.709-4.537 2.167-5.998zM68.836 51.708a1.11 1.11 0 0 1 1.512.418c1.435 2.53 3.42 6.851 4.73 13.069a1.11 1.11 0 1 1-2.17.457c-1.252-5.939-3.132-10.038-4.49-12.432a1.11 1.11 0 0 1 .418-1.512zM87.383 51.708a1.11 1.11 0 0 1 1.512.418c1.883 3.32 4.365 9.058 5.497 17.55a1.11 1.11 0 0 1-2.2.293c-1.085-8.139-3.44-13.6-5.227-16.748a1.11 1.11 0 0 1 .418-1.513z"/>
            <path d="M71.68 78.896c.05-.145 5.04-14.691 6.564-25.504a1.11 1.11 0 1 1 2.197.31c-.813 5.77-2.583 12.51-3.924 17.15a217.374 217.374 0 0 1-2.343 7.582c9.222 1.852 16.343.312 18.592-.298a70.877 70.877 0 0 0-.174-4.26 1.11 1.11 0 1 1 2.213-.158 73.67 73.67 0 0 1 .184 5.244c0 .472-.298.892-.742 1.048-.192.067-2.633.9-6.641 1.312-.652 4.243-.575 10.352 2.897 16.744a1.11 1.11 0 0 1-.975 1.638h-3.845a1.11 1.11 0 1 1 0-2.218h2.044c-2.83-6.075-2.958-11.8-2.388-15.991a45.005 45.005 0 0 1-4.986-.025c-.627 4.237-.512 10.279 2.92 16.596a1.11 1.11 0 0 1-.975 1.638h-3.844a1.11 1.11 0 1 1 0-2.218h2.043c-2.876-6.174-2.962-11.99-2.36-16.199a48.314 48.314 0 0 1-5.657-.947 1.109 1.109 0 0 1-.8-1.444zM80.639 37.025c.613 0 1.11.497 1.11 1.11v1.538a1.11 1.11 0 1 1-2.22 0v-1.538c0-.613.497-1.11 1.11-1.11zM76.64 37.025c.613 0 1.11.497 1.11 1.11v1.538a1.11 1.11 0 1 1-2.22 0v-1.538c0-.613.497-1.11 1.11-1.11zM80.157 45.512c1.379-.074 2.328-.598 2.902-1.603a1.109 1.109 0 1 1 1.926 1.101c-.95 1.664-2.58 2.604-4.71 2.718l-.06.002a1.11 1.11 0 0 1-.058-2.218z"/>
            <path d="M72.703 36.248c.613 0 1.11.496 1.11 1.109v4.49c0 4.514 3.673 8.188 8.19 8.188 4.071 0 7.559-3.037 8.11-7.065a1.11 1.11 0 0 1 .732-.896c.27-.095.51-.246.716-.451.356-.356.553-.83.553-1.335 0-.504-.197-.978-.554-1.335a1.888 1.888 0 0 0-2.664-.01 1.11 1.11 0 0 1-1.903-.774v-1.282c-2.387.378-5.96.045-8.719-2.871-2.092 1.173-5.209 1.103-5.61 1.089a1.11 1.11 0 0 1-1.032-.82c-.31-1.146-.836-4.068.97-6.426 1.449-1.892 3.965-2.852 7.477-2.852 3.929 0 8.047.145 11.417 1.881 3.812 1.964 6.05 5.642 6.84 11.243 1.147 8.136-2.127 15.913-4.18 19.824a1.109 1.109 0 1 1-1.965-1.031c1.93-3.675 5.008-10.963 3.948-18.484-1.465-10.388-7.857-11.214-16.06-11.214-2.785 0-4.708.667-5.715 1.982-.904 1.18-.896 2.688-.758 3.669 1.272-.06 3.241-.325 4.061-1.145a1.108 1.108 0 0 1 1.664.108c3.315 4.306 8.195 2.662 8.397 2.591a1.11 1.11 0 0 1 1.484 1.044v.832a4.106 4.106 0 0 1 5.12 3.981c0 1.098-.427 2.13-1.203 2.904a4.105 4.105 0 0 1-.92.695c-.959 4.81-5.24 8.366-10.207 8.366-5.74 0-10.409-4.668-10.409-10.407v-4.49c0-.612.497-1.108 1.11-1.108zM79.06 67.268c.692-.83 1.422-1.265 2.231-1.331 1.29-.106 2.29.758 3.258 1.594 1.355 1.17 2.253 1.855 3.586 1.256.328-.148.509-.361.605-.713.557-2.046-2.055-6.787-3.831-9.295a1.11 1.11 0 0 1 1.81-1.283c.532.75 5.173 7.442 4.162 11.16a3.217 3.217 0 0 1-1.835 2.154c-.658.296-1.272.418-1.843.418-1.766 0-3.125-1.172-4.104-2.018-.593-.512-1.27-1.091-1.626-1.062-.176.014-.434.212-.709.54a1.11 1.11 0 1 1-1.704-1.42z"/>
        </g>
        <circle cx="62.5" cy="62.5" r="62.5" stroke="#FFF" stroke-width="3"/>
    </g>
</svg>
