<svg xmlns="http://www.w3.org/2000/svg" width="129" height="129" viewBox="0 0 129 129">
    <g fill="none" fill-rule="evenodd">
        <circle cx="62.5" cy="62.5" r="62.5" stroke="#FFF" stroke-width="3" transform="translate(2 2)"/>
        <g fill="#FFF" fill-rule="nonzero">
            <path d="M77.255 99.712a1.479 1.479 0 0 0-1.039-.43 1.48 1.48 0 0 0-1.038.43 1.48 1.48 0 0 0-.43 1.039c0 .386.156.765.43 1.038.273.274.652.431 1.038.431a1.48 1.48 0 0 0 1.039-.43 1.48 1.48 0 0 0 .43-1.04 1.48 1.48 0 0 0-.43-1.038z"/>
            <path d="M102.22 40.222c0-4.05-3.295-7.345-7.346-7.345H92.78v-.882A5 5 0 0 0 87.785 27a5 5 0 0 0-4.995 4.995v.882H69.586v-.882A5 5 0 0 0 64.591 27a5 5 0 0 0-4.995 4.995v.882H46.393v-.882A5 5 0 0 0 41.398 27a5 5 0 0 0-4.995 4.995v.882h-2.057c-4.05 0-7.346 3.295-7.346 7.345v54.652c0 4.05 3.295 7.346 7.346 7.346h35.7a1.47 1.47 0 0 0 0-2.938h-35.7a4.412 4.412 0 0 1-4.408-4.408V40.222a4.412 4.412 0 0 1 4.408-4.407h2.056v2.669a5 5 0 0 0 4.996 4.995 1.47 1.47 0 0 0 0-2.938 2.06 2.06 0 0 1-2.057-2.057v-2.67h20.255v2.67a5 5 0 0 0 4.995 4.995 1.47 1.47 0 0 0 0-2.938 2.06 2.06 0 0 1-2.056-2.057v-2.67H82.79v2.67a5 5 0 0 0 4.995 4.995 1.47 1.47 0 0 0 0-2.938 2.06 2.06 0 0 1-2.057-2.057v-2.67h9.146a4.412 4.412 0 0 1 4.408 4.408v40.255h-11.46c-4.05 0-7.345 3.295-7.345 7.345v12.929a1.47 1.47 0 0 0 2.508 1.039l18.805-18.805a1.47 1.47 0 0 0 .423-1.184c.004-.05.007-.099.007-.149v-41.43zm-58.766-7.345h-4.113v-.882a2.06 2.06 0 0 1 2.057-2.057 2.06 2.06 0 0 1 2.056 2.057v.882zm23.194 0h-4.113v-.882a2.06 2.06 0 0 1 2.056-2.057 2.06 2.06 0 0 1 2.057 2.057v.882zm23.194 0h-4.114v-.882a2.06 2.06 0 0 1 2.057-2.057 2.06 2.06 0 0 1 2.057 2.057v.882zm-6.427 64.327v-9.382a4.412 4.412 0 0 1 4.407-4.407h9.382L83.415 97.204z"/>
            <path d="M45.805 73.425h-7.933V65.49a1.47 1.47 0 0 0-2.939 0v9.403c0 .811.658 1.47 1.47 1.47h9.402a1.47 1.47 0 0 0 0-2.94zM92.817 64.022h-9.402a1.47 1.47 0 0 0-1.47 1.47v9.402c0 .811.659 1.47 1.47 1.47h9.402a1.47 1.47 0 0 0 1.47-1.47v-9.403a1.47 1.47 0 0 0-1.47-1.469zm-1.469 9.403h-6.464V66.96h6.464v6.464zM77.147 73.425h-7.934V65.49a1.47 1.47 0 0 0-2.938 0v9.403c0 .811.658 1.47 1.47 1.47h9.402a1.47 1.47 0 0 0 0-2.94zM61.476 73.425h-7.933V65.49a1.47 1.47 0 0 0-2.939 0v9.403c0 .811.658 1.47 1.47 1.47h9.402a1.47 1.47 0 0 0 0-2.94zM45.805 91.348h-7.933v-7.933a1.47 1.47 0 0 0-2.939 0v9.402c0 .812.658 1.47 1.47 1.47h9.402a1.47 1.47 0 0 0 0-2.939zM77.147 91.348h-7.934v-7.933a1.47 1.47 0 0 0-2.938 0v9.402c0 .812.658 1.47 1.47 1.47h9.402a1.47 1.47 0 0 0 0-2.939zM61.476 91.348h-7.933v-7.933a1.47 1.47 0 0 0-2.939 0v9.402c0 .812.658 1.47 1.47 1.47h9.402a1.47 1.47 0 0 0 0-2.939zM45.805 55.501h-7.933v-7.933a1.47 1.47 0 0 0-2.939 0v9.402c0 .812.658 1.47 1.47 1.47h9.402a1.47 1.47 0 0 0 0-2.939zM92.817 46.099h-9.402a1.47 1.47 0 0 0-1.47 1.469v9.402c0 .812.659 1.47 1.47 1.47h9.402a1.47 1.47 0 0 0 1.47-1.47v-9.402a1.47 1.47 0 0 0-1.47-1.47zM91.349 55.5h-6.464v-6.464h6.464v6.464zM77.147 55.501h-7.934v-7.933a1.47 1.47 0 0 0-2.938 0v9.402c0 .812.658 1.47 1.47 1.47h9.402a1.47 1.47 0 0 0 0-2.939zM61.476 55.501h-7.933v-7.933a1.47 1.47 0 0 0-2.939 0v9.402c0 .812.658 1.47 1.47 1.47h9.402a1.47 1.47 0 0 0 0-2.939z"/>
        </g>
    </g>
</svg>
