<svg xmlns="http://www.w3.org/2000/svg" width="129" height="129" viewBox="0 0 129 129">
    <g fill="none" fill-rule="evenodd">
        <circle cx="62.5" cy="62.5" r="62.5" stroke="#FFF" stroke-width="3" transform="translate(2 2)"/>
        <g fill="#FFF" fill-rule="nonzero">
            <path d="M75.305 50.559a1.473 1.473 0 0 0-1.192-.997l-6.42-.924-2.872-5.774a1.477 1.477 0 0 0-1.324-.816c-.562 0-1.075.317-1.323.817l-2.87 5.775-6.42.928a1.473 1.473 0 0 0-1.19.997 1.457 1.457 0 0 0 .374 1.501l4.646 4.494-1.094 6.347a1.46 1.46 0 0 0 .587 1.432 1.482 1.482 0 0 0 1.554.111l5.741-2.998 5.743 2.995c.497.26 1.1.216 1.554-.112a1.46 1.46 0 0 0 .587-1.433l-1.098-6.346 4.644-4.495c.402-.39.546-.972.373-1.502zm-7.634 4.438a1.458 1.458 0 0 0-.424 1.296l.724 4.18-3.783-1.972a1.486 1.486 0 0 0-1.373 0l-3.782 1.975.721-4.18a1.458 1.458 0 0 0-.424-1.297l-3.06-2.96 4.227-.61c.481-.07.896-.37 1.111-.802l1.89-3.804 1.892 3.803c.215.432.631.732 1.112.8l4.228.61-3.059 2.96z"/>
            <path d="M96.666 91.36L84.468 70.3c3.684-4.564 5.89-10.35 5.89-16.64C90.359 38.96 78.31 27 63.5 27S36.64 38.96 36.64 53.66c0 6.29 2.208 12.076 5.891 16.64L30.333 91.36c-.28.484-.259 1.084.054 1.547.314.463.865.71 1.422.635l9.52-1.269 3.654 8.819a1.475 1.475 0 0 0 1.365.908c.525 0 1.013-.278 1.278-.733l12.314-21.17.005-.01a27.187 27.187 0 0 0 7.11 0l.005.01 12.314 21.17a1.478 1.478 0 0 0 1.377.73 1.475 1.475 0 0 0 1.266-.905l3.654-8.819 9.52 1.27a1.48 1.48 0 0 0 1.422-.636 1.458 1.458 0 0 0 .053-1.547zm-50.095 5.862l-2.66-6.42 2.387-3.865a1.458 1.458 0 0 0-.487-2.015 1.482 1.482 0 0 0-2.03.484l-2.411 3.906-6.985.931 10.223-17.65a26.909 26.909 0 0 0 12.27 6.907L46.572 97.222zM63.5 77.39c-13.183 0-23.908-10.646-23.908-23.73 0-13.086 10.725-23.731 23.908-23.731 13.182 0 23.907 10.645 23.907 23.73S76.682 77.39 63.5 77.39zm22.13 11.921l-2.412-3.906a1.482 1.482 0 0 0-2.03-.484 1.459 1.459 0 0 0-.486 2.015l2.386 3.865-2.66 6.42L70.122 79.5a26.908 26.908 0 0 0 12.27-6.908l10.223 17.651-6.984-.93z"/>
            <path d="M63.5 34.617c-3.294 0-6.543.843-9.397 2.437a1.46 1.46 0 0 0-.562 1.995c.4.705 1.3.955 2.01.558a16.332 16.332 0 0 1 7.949-2.06c8.95 0 16.233 7.228 16.233 16.113 0 2.428-.53 4.76-1.575 6.934a1.46 1.46 0 0 0 .696 1.953 1.479 1.479 0 0 0 1.968-.691 18.758 18.758 0 0 0 1.863-8.196c0-10.5-8.607-19.043-19.185-19.043zM77.232 64.855a1.484 1.484 0 0 0-2.087.03l-.032.034a1.457 1.457 0 0 0 .024 2.072c.287.278.66.416 1.031.416.384 0 .767-.147 1.056-.441l.04-.04a1.457 1.457 0 0 0-.032-2.071zM73.327 68.36a1.481 1.481 0 0 0-2.005-.577 16.343 16.343 0 0 1-7.822 1.99c-8.952 0-16.234-7.228-16.234-16.113 0-2.327.489-4.572 1.452-6.672a1.46 1.46 0 0 0-.731-1.94 1.48 1.48 0 0 0-1.955.726 18.773 18.773 0 0 0-1.718 7.886c0 10.5 8.607 19.043 19.185 19.043a19.32 19.32 0 0 0 9.247-2.354 1.46 1.46 0 0 0 .58-1.99zM51.546 40.608a1.484 1.484 0 0 0-2.086.074l-.032.035a1.457 1.457 0 0 0 .08 2.07c.284.26.644.39 1.002.39.397 0 .793-.159 1.084-.47l.026-.028a1.457 1.457 0 0 0-.074-2.07z"/>
        </g>
    </g>
</svg>
