<svg xmlns="http://www.w3.org/2000/svg" width="129" height="129" viewBox="0 0 129 129">
    <g fill="none" fill-rule="evenodd" transform="translate(2 2)">
        <g fill="#FFF" fill-rule="nonzero">
            <path d="M87.214 78.219l2.175-2.176-1.716-1.715-2.175 2.175-2.29-2.29a22.912 22.912 0 0 0 2.897-11.16c0-.346-.037-.682-.052-1.024a12.62 12.62 0 0 0 9.758-12.322h-2.427c0 4.686-3.128 8.693-7.568 9.887-1.678-11.072-11.231-19.593-22.763-19.593-.346 0-.682.037-1.024.053a12.62 12.62 0 0 0-12.322-9.759v2.427c4.686 0 8.693 3.128 9.887 7.568-11.072 1.678-19.593 11.231-19.593 22.763 0 .346.037.682.053 1.024A12.62 12.62 0 0 0 30.295 76.4h2.427c0-4.686 3.128-8.693 7.568-9.887 1.678 11.072 11.231 19.593 22.763 19.593 4.047 0 7.85-1.057 11.16-2.896l2.289 2.29-2.175 2.174 1.715 1.716 2.175-2.175L89.805 98.8a6.32 6.32 0 0 0 4.498 1.863 6.368 6.368 0 0 0 6.36-6.36 6.32 6.32 0 0 0-1.862-4.498L87.214 78.22zm-24.16-35.791c10.348 0 18.915 7.668 20.38 17.616l-2.392.398c-1.272-8.8-8.842-15.588-17.989-15.588-.062 0-.122.009-.184.01l-.4-2.406c.196-.006.386-.03.584-.03zm0 4.853c8.696 0 15.771 7.076 15.771 15.772 0 8.697-7.075 15.772-15.772 15.772-8.696 0-15.772-7.075-15.772-15.772 0-8.696 7.076-15.772 15.772-15.772zM42.427 63.053c0-10.349 7.668-18.916 17.616-20.38l.398 2.391c-8.8 1.272-15.588 8.842-15.588 17.99 0 .061.009.122.01.184l-2.406.4c-.006-.197-.03-.387-.03-.585zm20.625 20.625c-10.349 0-18.916-7.667-20.38-17.616l2.391-.398c1.272 8.8 8.842 15.588 17.99 15.588 10.034 0 18.198-8.164 18.198-18.199 0-.062-.009-.122-.01-.184l2.406-.4c.006.196.03.386.03.584 0 11.373-9.252 20.625-20.625 20.625zm13.26-1.8a23.211 23.211 0 0 0 5.565-5.564l1.905 1.905-5.564 5.564-1.905-1.905zm17.99 16.36a3.91 3.91 0 0 1-2.781-1.152L79.934 85.498l5.564-5.564 11.588 11.588a3.91 3.91 0 0 1 1.151 2.782 3.937 3.937 0 0 1-3.933 3.933z"/>
            <path d="M89.745 47.28c6.02 0 10.919-4.897 10.919-10.918 0-6.022-4.898-10.92-10.92-10.92-6.02 0-10.919 4.898-10.919 10.92 0 6.021 4.898 10.919 10.92 10.919zm3.64-3.257a8.439 8.439 0 0 1-3.64.831 8.439 8.439 0 0 1-3.64-.83v-1.596a3.644 3.644 0 0 1 3.64-3.64 3.644 3.644 0 0 1 3.64 3.64v1.595zm-6.067-10.088a2.429 2.429 0 0 1 2.427-2.426 2.429 2.429 0 0 1 2.426 2.426 2.429 2.429 0 0 1-2.426 2.427 2.429 2.429 0 0 1-2.427-2.427zm2.427-6.066c4.681 0 8.492 3.81 8.492 8.493a8.463 8.463 0 0 1-2.438 5.945 6.062 6.062 0 0 0-2.665-4.908 4.833 4.833 0 0 0 1.463-3.464 4.858 4.858 0 0 0-4.852-4.853 4.858 4.858 0 0 0-4.853 4.853c0 1.358.562 2.583 1.463 3.464a6.058 6.058 0 0 0-2.665 4.908 8.463 8.463 0 0 1-2.438-5.945c0-4.682 3.81-8.493 8.493-8.493zM36.362 47.28c6.021 0 10.919-4.897 10.919-10.918 0-6.022-4.898-10.92-10.92-10.92-6.02 0-10.919 4.898-10.919 10.92 0 6.021 4.898 10.919 10.92 10.919zm3.64-3.257a8.439 8.439 0 0 1-3.64.831 8.439 8.439 0 0 1-3.64-.83v-1.596a3.644 3.644 0 0 1 3.64-3.64 3.644 3.644 0 0 1 3.64 3.64v1.595zm-6.067-10.088a2.429 2.429 0 0 1 2.427-2.426 2.429 2.429 0 0 1 2.426 2.426 2.429 2.429 0 0 1-2.426 2.427 2.429 2.429 0 0 1-2.427-2.427zm2.427-6.066c4.682 0 8.492 3.81 8.492 8.493a8.463 8.463 0 0 1-2.438 5.945 6.062 6.062 0 0 0-2.665-4.908 4.833 4.833 0 0 0 1.464-3.464 4.858 4.858 0 0 0-4.853-4.853 4.858 4.858 0 0 0-4.853 4.853c0 1.358.563 2.583 1.463 3.464a6.064 6.064 0 0 0-2.664 4.908 8.463 8.463 0 0 1-2.439-5.945c0-4.682 3.81-8.493 8.493-8.493zM36.362 78.825c-6.022 0-10.92 4.898-10.92 10.92 0 6.02 4.898 10.919 10.92 10.919 6.021 0 10.919-4.898 10.919-10.92 0-6.02-4.898-10.919-10.92-10.919zm3.64 18.581a8.439 8.439 0 0 1-3.64.831 8.439 8.439 0 0 1-3.64-.83V95.81a3.644 3.644 0 0 1 3.64-3.64 3.644 3.644 0 0 1 3.64 3.64v1.595zm-6.067-10.088a2.429 2.429 0 0 1 2.427-2.426 2.429 2.429 0 0 1 2.426 2.426 2.429 2.429 0 0 1-2.426 2.427 2.429 2.429 0 0 1-2.427-2.427zm8.48 8.371a6.062 6.062 0 0 0-2.664-4.907 4.833 4.833 0 0 0 1.464-3.464 4.858 4.858 0 0 0-4.853-4.853 4.858 4.858 0 0 0-4.853 4.853c0 1.358.563 2.583 1.463 3.464a6.064 6.064 0 0 0-2.664 4.907 8.463 8.463 0 0 1-2.439-5.944c0-4.682 3.81-8.493 8.493-8.493 4.682 0 8.492 3.81 8.492 8.493a8.463 8.463 0 0 1-2.438 5.944zM49.707 60.627v8.492H76.4V55.773h-7.28v10.92h-2.426V50.92h-7.28v15.772h-2.426v-6.066h-7.28zM71.546 58.2h2.426v8.493h-2.426V58.2zm-9.706-4.853h2.426v13.346H61.84V53.347zm-7.28 13.346h-2.426v-3.64h2.426v3.64z"/>
        </g>
        <circle cx="62.5" cy="62.5" r="62.5" stroke="#FFF" stroke-width="3"/>
    </g>
</svg>
